<svg xmlns="http://www.w3.org/2000/svg" viewBox="0 0 1338 714" width="1338" height="714"><defs><linearGradient id="fade" x1="0" y1="0" x2="0" y2="1"><stop offset="0" stop-color="#f4efe8" stop-opacity="0"/><stop offset="1" stop-color="#f4efe8" stop-opacity="1"/></linearGradient></defs><rect width="1338" height="714" fill="#ffffff"/><text x="40" y="40" font-family="Helvetica,Arial" font-size="17" fill="#222">A 现状（基线）</text><g transform="translate(40 54)"><svg width="400" height="160" viewBox="0 0 400 160"><rect width="400" height="160" fill="#d8ecdd"/><line x1="200.0" y1="-4" x2="206.0" y2="164" stroke="#a5d6b0" stroke-width="2" opacity="0.5"/><g transform="rotate(-2 115.0 83.0)"><path d="M 84.04 112 Q 80.6 135.07999999999998 72 142.51999999999998 Q 90.92 132.60000000000002 99.52 112 Z" fill="#b39ddb"/><rect x="72" y="52" width="86" height="62" rx="26.04" fill="#b39ddb"/></g><g transform="rotate(3 294.0 81.5)"><path d="M 246.48 127 Q 241.2 161.3 228 172.7 Q 257.04 157.5 270.24 127 Z" fill="#a5d6b0"/><rect x="228" y="34" width="132" height="95" rx="39.9" fill="#a5d6b0"/></g></svg><rect width="400" height="160" rx="14" fill="none" stroke="#ded8d1"/></g><text x="40" y="236" font-family="Helvetica,Arial" font-size="13" fill="#666">给下属难听的反馈</text><g transform="translate(466 54)"><svg width="400" height="160" viewBox="0 0 400 160"><rect width="400" height="160" fill="#fadfd3"/><line x1="200.0" y1="-4" x2="206.0" y2="164" stroke="#f2b8a0" stroke-width="2" opacity="0.5"/><g transform="rotate(-2 115.0 83.0)"><path d="M 84.04 112 Q 80.6 135.07999999999998 72 142.51999999999998 Q 90.92 132.60000000000002 99.52 112 Z" fill="#4db6ac"/><rect x="72" y="52" width="86" height="62" rx="26.04" fill="#4db6ac"/></g><g transform="rotate(3 294.0 81.5)"><path d="M 246.48 127 Q 241.2 161.3 228 172.7 Q 257.04 157.5 270.24 127 Z" fill="#f2b8a0"/><rect x="228" y="34" width="132" height="95" rx="39.9" fill="#f2b8a0"/></g></svg><rect width="400" height="160" rx="14" fill="none" stroke="#ded8d1"/></g><text x="466" y="236" font-family="Helvetica,Arial" font-size="13" fill="#666">功劳被抢了</text><g transform="translate(892 54)"><svg width="400" height="160" viewBox="0 0 400 160"><rect width="400" height="160" fill="#cdeef2"/><line x1="200.0" y1="-4" x2="206.0" y2="164" stroke="#4dd0e1" stroke-width="2" opacity="0.5"/><g transform="rotate(-2 115.0 83.0)"><path d="M 84.04 112 Q 80.6 135.07999999999998 72 142.51999999999998 Q 90.92 132.60000000000002 99.52 112 Z" fill="#ce93d8"/><rect x="72" y="52" width="86" height="62" rx="26.04" fill="#ce93d8"/></g><g transform="rotate(3 294.0 81.5)"><path d="M 246.48 127 Q 241.2 161.3 228 172.7 Q 257.04 157.5 270.24 127 Z" fill="#4dd0e1"/><rect x="228" y="34" width="132" height="95" rx="39.9" fill="#4dd0e1"/></g></svg><rect width="400" height="160" rx="14" fill="none" stroke="#ded8d1"/></g><text x="892" y="236" font-family="Helvetica,Arial" font-size="13" fill="#666">给比你资深的人分派任务</text><text x="40" y="258" font-family="Helvetica,Arial" font-size="17" fill="#222">B 手稿页 + 批注</text><g transform="translate(40 272)"><svg width="400" height="160" viewBox="0 0 400 160"><rect width="400" height="160" fill="#f4efe8"/><line x1="46" y1="0" x2="46" y2="160" stroke="#ded8d1" stroke-width="1.5"/><rect x="66" y="34" width="175" height="7" rx="3.5" fill="#261d16" opacity="0.30"/><rect x="66" y="78" width="132" height="7" rx="3.5" fill="#261d16" opacity="0.40"/><rect x="66" y="122" width="225" height="7" rx="3.5" fill="#261d16" opacity="0.30"/><ellipse cx="132" cy="81" rx="74" ry="14" fill="none" stroke="#ca592e" stroke-width="3"/><rect x="362" y="134" width="12" height="12" rx="3" fill="#c65b4c" stroke="#c65b4c" stroke-width="2"/><rect x="345" y="134" width="12" height="12" rx="3" fill="none" stroke="#c65b4c" stroke-width="2"/><rect x="328" y="134" width="12" height="12" rx="3" fill="none" stroke="#c65b4c" stroke-width="2"/></svg><rect width="400" height="160" rx="14" fill="none" stroke="#ded8d1"/></g><text x="40" y="454" font-family="Helvetica,Arial" font-size="13" fill="#666">给下属难听的反馈</text><g transform="translate(466 272)"><svg width="400" height="160" viewBox="0 0 400 160"><rect width="400" height="160" fill="#f4efe8"/><line x1="46" y1="0" x2="46" y2="160" stroke="#ded8d1" stroke-width="1.5"/><rect x="66" y="34" width="127" height="7" rx="3.5" fill="#261d16" opacity="0.30"/><rect x="66" y="63" width="162" height="7" rx="3.5" fill="#261d16" opacity="0.40"/><rect x="66" y="93" width="251" height="7" rx="3.5" fill="#261d16" opacity="0.30"/><rect x="66" y="122" width="260" height="7" rx="3.5" fill="#261d16" opacity="0.40"/><ellipse cx="147" cy="96" rx="91" ry="14" fill="none" stroke="#ca592e" stroke-width="3"/><rect x="362" y="134" width="12" height="12" rx="3" fill="#c65b4c" stroke="#c65b4c" stroke-width="2"/><rect x="345" y="134" width="12" height="12" rx="3" fill="none" stroke="#c65b4c" stroke-width="2"/></svg><rect width="400" height="160" rx="14" fill="none" stroke="#ded8d1"/></g><text x="466" y="454" font-family="Helvetica,Arial" font-size="13" fill="#666">功劳被抢了</text><g transform="translate(892 272)"><svg width="400" height="160" viewBox="0 0 400 160"><rect width="400" height="160" fill="#f4efe8"/><line x1="46" y1="0" x2="46" y2="160" stroke="#ded8d1" stroke-width="1.5"/><rect x="66" y="34" width="146" height="7" rx="3.5" fill="#261d16" opacity="0.30"/><rect x="66" y="56" width="181" height="7" rx="3.5" fill="#261d16" opacity="0.40"/><rect x="66" y="78" width="174" height="7" rx="3.5" fill="#261d16" opacity="0.30"/><rect x="66" y="100" width="305" height="7" rx="3.5" fill="#261d16" opacity="0.40"/><rect x="66" y="122" width="155" height="7" rx="3.5" fill="#261d16" opacity="0.30"/><path d="M66 94 C 120 90 193 97 247 92" fill="none" stroke="#ca592e" stroke-width="3.5" stroke-linecap="round"/><rect x="362" y="134" width="12" height="12" rx="3" fill="#00656a" stroke="#00656a" stroke-width="2"/><rect x="345" y="134" width="12" height="12" rx="3" fill="none" stroke="#00656a" stroke-width="2"/><rect x="328" y="134" width="12" height="12" rx="3" fill="none" stroke="#00656a" stroke-width="2"/></svg><rect width="400" height="160" rx="14" fill="none" stroke="#ded8d1"/></g><text x="892" y="454" font-family="Helvetica,Arial" font-size="13" fill="#666">给比你资深的人分派任务</text><text x="40" y="476" font-family="Helvetica,Arial" font-size="17" fill="#222">C 对方的第一句话</text><g transform="translate(40 490)"><svg width="400" height="160" viewBox="0 0 400 160"><rect width="400" height="160" fill="#f4efe8"/><line x1="34" y1="0" x2="34" y2="160" stroke="#ded8d1" stroke-width="1.5"/><circle cx="56" cy="28" r="5" fill="#c65b4c"/><text x="70" y="32" font-family="Helvetica,Arial" font-size="11" fill="#7d726a" letter-spacing="1.5">下属 Chris</text><text x="54" y="62" font-family="Songti SC,serif" font-size="21" fill="#261d16">你找我……是因为上周那个客户的事吗？我</text><text x="54" y="92" font-family="Songti SC,serif" font-size="21" fill="#261d16">真的已经很小心了。</text><path d="M54 101 C 120 97 186 106 243 101" fill="none" stroke="#ca592e" stroke-width="3" stroke-linecap="round" opacity="0.9"/><rect x="0" y="138" width="400" height="22" fill="url(#fade)"/></svg><rect width="400" height="160" rx="14" fill="none" stroke="#ded8d1"/></g><text x="40" y="672" font-family="Helvetica,Arial" font-size="13" fill="#666">给下属难听的反馈</text><g transform="translate(466 490)"><svg width="400" height="160" viewBox="0 0 400 160"><rect width="400" height="160" fill="#f4efe8"/><line x1="34" y1="0" x2="34" y2="160" stroke="#ded8d1" stroke-width="1.5"/><circle cx="56" cy="28" r="5" fill="#c65b4c"/><text x="70" y="32" font-family="Helvetica,Arial" font-size="11" fill="#7d726a" letter-spacing="1.5">同事 Ryan</text><text x="54" y="62" font-family="Songti SC,serif" font-size="21" fill="#261d16">哎，刚才那个汇报效果不错吧？总监好像挺</text><text x="54" y="92" font-family="Songti SC,serif" font-size="21" fill="#261d16">满意的。</text><path d="M54 101 C 83 97 113 106 138 101" fill="none" stroke="#ca592e" stroke-width="3" stroke-linecap="round" opacity="0.9"/><rect x="0" y="138" width="400" height="22" fill="url(#fade)"/></svg><rect width="400" height="160" rx="14" fill="none" stroke="#ded8d1"/></g><text x="466" y="672" font-family="Helvetica,Arial" font-size="13" fill="#666">功劳被抢了</text><g transform="translate(892 490)"><svg width="400" height="160" viewBox="0 0 400 160"><rect width="400" height="160" fill="#f4efe8"/><line x1="34" y1="0" x2="34" y2="160" stroke="#ded8d1" stroke-width="1.5"/><circle cx="56" cy="28" r="5" fill="#00656a"/><text x="70" y="32" font-family="Helvetica,Arial" font-size="11" fill="#7d726a" letter-spacing="1.5">资深工程师 Tom</text><text x="54" y="62" font-family="Songti SC,serif" font-size="21" fill="#261d16">说实话，这种整理接口文档的活儿，让实习</text><text x="54" y="92" font-family="Songti SC,serif" font-size="21" fill="#261d16">生做就行了。我在这儿八年了。</text><path d="M54 101 C 157 97 260 106 348 101" fill="none" stroke="#ca592e" stroke-width="3" stroke-linecap="round" opacity="0.9"/><rect x="0" y="138" width="400" height="22" fill="url(#fade)"/></svg><rect width="400" height="160" rx="14" fill="none" stroke="#ded8d1"/></g><text x="892" y="672" font-family="Helvetica,Arial" font-size="13" fill="#666">给比你资深的人分派任务</text></svg>